<svg width="200" height="200" viewBox="0 0 200 200" fill="none" xmlns="http://www.w3.org/2000/svg">
<g clip-path="url(#clip0_1371_355)">
<rect x="200" y="200" width="200" height="200" rx="40" transform="rotate(180 200 200)" fill="#252525"/>
<g filter="url(#filter0_d_1371_355)">
<path d="M61.302 165.904C56.3527 165.904 52.086 165.008 48.502 163.216C45.0033 161.509 42.3153 158.992 40.438 155.664C38.646 152.336 37.75 148.411 37.75 143.888C37.75 139.877 38.518 135.44 40.054 130.576C41.6753 125.712 44.4913 120.763 48.502 115.728C52.598 110.693 58.3153 106 65.654 101.648V64.528H47.734V48.4H83.83V141.584C83.83 146.021 83.0193 150.075 81.398 153.744C79.7767 157.499 77.302 160.443 73.974 162.576C70.646 164.795 66.422 165.904 61.302 165.904ZM60.15 149.52C61.3447 149.52 62.326 149.179 63.094 148.496C63.9473 147.899 64.5447 147.003 64.886 145.808C65.3127 144.699 65.526 143.376 65.526 141.84V120.208C63.0513 122.256 61.0033 124.389 59.382 126.608C57.7607 128.827 56.566 131.173 55.798 133.648C55.1153 136.123 54.774 138.853 54.774 141.84C54.774 144.315 55.286 146.192 56.31 147.472C57.4193 148.837 58.6993 149.52 60.15 149.52ZM101.71 138V48.4H139.214C145.102 48.4 150.435 49.7653 155.214 52.496C160.078 55.1413 163.918 58.8533 166.734 63.632C169.635 68.4107 171.086 73.9573 171.086 80.272C171.086 86.5013 169.635 92.048 166.734 96.912C163.918 101.691 160.078 105.445 155.214 108.176C150.435 110.821 145.102 112.144 139.214 112.144H120.014V138H101.71ZM120.014 96.016H137.038C139.939 96.016 142.585 95.4187 144.974 94.224C147.363 92.944 149.241 91.152 150.606 88.848C152.057 86.4587 152.782 83.6 152.782 80.272C152.782 76.944 152.057 74.128 150.606 71.824C149.241 69.4347 147.363 67.6427 144.974 66.448C142.585 65.168 139.939 64.528 137.038 64.528H120.014V96.016Z" fill="#D7D1C6"/>
</g>
</g>
<defs>
<filter id="filter0_d_1371_355" x="34.15" y="45.8" width="146.536" height="130.704" filterUnits="userSpaceOnUse" color-interpolation-filters="sRGB">
<feFlood flood-opacity="0" result="BackgroundImageFix"/>
<feColorMatrix in="SourceAlpha" type="matrix" values="0 0 0 0 0 0 0 0 0 0 0 0 0 0 0 0 0 0 127 0" result="hardAlpha"/>
<feOffset dx="3" dy="4"/>
<feGaussianBlur stdDeviation="3.3"/>
<feComposite in2="hardAlpha" operator="out"/>
<feColorMatrix type="matrix" values="0 0 0 0 1 0 0 0 0 1 0 0 0 0 1 0 0 0 0.25 0"/>
<feBlend mode="normal" in2="BackgroundImageFix" result="effect1_dropShadow_1371_355"/>
<feBlend mode="normal" in="SourceGraphic" in2="effect1_dropShadow_1371_355" result="shape"/>
</filter>
<clipPath id="clip0_1371_355">
<rect x="200" y="200" width="200" height="200" rx="40" transform="rotate(180 200 200)" fill="white"/>
</clipPath>
</defs>
</svg>
